<svg width="31" height="31" viewBox="0 0 31 31" fill="none" xmlns="http://www.w3.org/2000/svg">
<g clip-path="url(#clip0_2275_220)">
<path d="M19.375 3.875C21.049 3.875 22.599 4.40458 23.8661 5.30875L12.068 17.1055C11.9447 17.2247 11.8463 17.3672 11.7786 17.5248C11.7109 17.6824 11.6752 17.8519 11.6738 18.0234C11.6723 18.1949 11.7049 18.365 11.7699 18.5237C11.8348 18.6825 11.9308 18.8267 12.052 18.948C12.1733 19.0692 12.3175 19.1652 12.4763 19.2301C12.635 19.295 12.8051 19.3277 12.9766 19.3262C13.1481 19.3248 13.3176 19.2891 13.4752 19.2214C13.6328 19.1537 13.7753 19.0553 13.8945 18.932L25.6925 7.13388C26.6266 8.44496 27.1274 10.0152 27.125 11.625V24.5417C27.125 25.2268 26.8528 25.8839 26.3684 26.3684C25.8839 26.8528 25.2268 27.125 24.5417 27.125H6.45833C5.77319 27.125 5.11611 26.8528 4.63164 26.3684C4.14717 25.8839 3.875 25.2268 3.875 24.5417V6.45833C3.875 5.77319 4.14717 5.11611 4.63164 4.63164C5.11611 4.14717 5.77319 3.875 6.45833 3.875H19.375ZM27.9736 3.02638C28.2158 3.2686 28.3518 3.59708 28.3518 3.93958C28.3518 4.28209 28.2158 4.61057 27.9736 4.85279L25.6912 7.13388C25.1882 6.42774 24.571 5.81046 23.8648 5.30746L26.1459 3.02638C26.3881 2.78423 26.7166 2.64819 27.0591 2.64819C27.4016 2.64819 27.7314 2.78423 27.9736 3.02638Z" fill="#B71438"/>
</g>
<defs>
<clipPath id="clip0_2275_220">
<rect width="31" height="31" fill="white"/>
</clipPath>
</defs>
</svg>
